<svg width="32" height="32" viewBox="0 0 24 24" fill="none" xmlns="http://www.w3.org/2000/svg">
  <path d="M3.89 15.672L6.255 7.41A.5.5 0 0 1 6.74 7h2.52a.5.5 0 0 1 .485.41l2.366 8.262c.035.122-.066.24-.194.24H9.34c-.14 0-.25-.113-.276-.25L8.863 15H7.137l-.201.662c-.026.137-.136.25-.276.25H4.084c-.128 0-.229-.118-.194-.24z" fill="#FFA500"/>
  <path d="M8 10.5L7.5 12h1L8 10.5z" fill="#FF8C00"/>
  <circle cx="16" cy="8" r="3" fill="#FFA500"/>
  <path d="M20 16v-4a2 2 0 0 0-2-2h-4v6h6z" fill="#FF8C00"/>
</svg>