<svg width="32" height="32" viewBox="0 0 24 24" fill="none" xmlns="http://www.w3.org/2000/svg">
  <circle cx="12" cy="12" r="10" fill="#181717"/>
  <path d="M8.5 14.5c-1 0-1.5-.5-1.5-1.5s.5-1.5 1.5-1.5 1.5.5 1.5 1.5-.5 1.5-1.5 1.5z" fill="white"/>
  <path d="M15.5 14.5c-1 0-1.5-.5-1.5-1.5s.5-1.5 1.5-1.5 1.5.5 1.5 1.5-.5 1.5-1.5 1.5z" fill="white"/>
  <path d="M12 16c-2 0-3.5-1-3.5-2.5h7c0 1.5-1.5 2.5-3.5 2.5z" fill="white"/>
  <path d="M9 9c0-.5.5-1 1-1s1 .5 1 1-.5 1-1 1-1-.5-1-1z" fill="white"/>
  <path d="M13 9c0-.5.5-1 1-1s1 .5 1 1-.5 1-1 1-1-.5-1-1z" fill="white"/>
</svg>