<svg xmlns="http://www.w3.org/2000/svg" viewBox="0 0 128 128">
  <path fill="#00618A" d="M2.001 90.458h4.108V74.235l6.36 14.143c.75 1.712 1.777 2.317 3.792 2.317s3.003-.605 3.753-2.317l6.36-14.143v16.223h4.108V74.262c0-1.58-.632-2.345-1.936-2.739-3.121-.974-5.215-.131-6.163 1.976l-6.241 13.958-6.043-13.959c-.909-2.106-3.042-2.949-6.163-1.976C2.632 71.917 2 72.681 2 74.261v16.197zm32.55-13.543c0-5.876 2.974-9.046 8.378-9.046s8.377 3.17 8.377 9.046v13.543h-4.108V77.154c0-3.697-1.659-5.414-4.269-5.414-2.609 0-4.269 1.717-4.269 5.414v13.304h-4.108V76.915zM73.252 90.458h4.108V61.251h-4.108v29.207zm1.976-32.155c1.502 0 2.689-1.226 2.689-2.728s-1.187-2.728-2.689-2.728c-1.501 0-2.688 1.226-2.688 2.728s1.187 2.728 2.688 2.728zM84.34 81.669c0 5.876 2.974 9.046 8.378 9.046 5.404 0 8.378-3.17 8.378-9.046v-4.108c0-5.876-2.974-9.046-8.378-9.046-5.404 0-8.378 3.17-8.378 9.046v4.108zm4.108-4.108c0-3.697 1.659-5.414 4.27-5.414 2.609 0 4.268 1.717 4.268 5.414v4.108c0 3.697-1.659 5.414-4.268 5.414-2.611 0-4.27-1.717-4.27-5.414v-4.108zM106.389 90.458h4.108V68.515h-4.108v21.943zm0-24.522h4.108V61.25h-4.108v4.686z"/>
  <path fill="#E48E00" d="M2.26 45.047h6.302c5.097 0 7.633 2.536 7.633 7.633v.921c0 5.097-2.536 7.633-7.633 7.633H6.403v13.447H2.26V45.047zm11.792 9.275c0-2.693-1.232-3.925-3.925-3.925H6.403v8.772h3.724c2.693 0 3.925-1.232 3.925-3.925v-.922zM19.174 51.56h4.143v6.984c0 4.676 2.043 6.561 5.65 6.561s5.65-1.885 5.65-6.561V51.56h4.143v6.984c0 6.719-3.37 9.885-9.793 9.885s-9.793-3.166-9.793-9.885V51.56zM42.92 51.56h11.516v3.529H47.063v5.967h6.168v3.529h-6.168v6.087h7.373v3.529H42.92V51.56zm15.691 0h6.302c5.097 0 7.633 2.536 7.633 7.633v.921c0 5.097-2.536 7.633-7.633 7.633h-2.159v6.934h-4.143V51.56zm11.792 9.275c0-2.693-1.232-3.925-3.925-3.925h-3.724v8.772h3.724c2.693 0 3.925-1.232 3.925-3.925v-.922zM76.043 51.56h11.516v3.529h-7.373v5.967h6.168v3.529h-6.168v6.087h7.373v3.529H76.043V51.56zm15.691 0h6.302c5.097 0 7.633 2.536 7.633 7.633v.921c0 5.097-2.536 7.633-7.633 7.633h-2.159v6.934h-4.143V51.56zm11.792 9.275c0-2.693-1.232-3.925-3.925-3.925h-3.724v8.772h3.724c2.693 0 3.925-1.232 3.925-3.925v-.922zM107.166 51.56h13.515v3.529h-4.686v19.592h-4.143V55.089h-4.686V51.56z"/>
</svg>