<svg xmlns="http://www.w3.org/2000/svg" viewBox="0 0 128 128">
  <path fill="#83CD29" d="M112.678 30.334L68.535 4.729c-2.781-1.584-6.424-1.584-9.227 0L14.82 30.334C11.951 31.985 10 35.088 10 38.407v51.142c0 3.319 1.951 6.449 4.82 8.073l11.31 6.538c6.118 3.058 8.293 3.058 11.139 3.058 9.128 0 14.439-5.565 14.439-15.183V43.45c0-.446-.354-.817-.805-.817h-3.53c-.437 0-.79.371-.79.817v48.586c0 3.796-3.918 7.572-10.283 4.356l-11.855-6.842c-.254-.15-.415-.423-.415-.722V38.407c0-.286.161-.559.415-.709l43.875-25.369c.241-.137.575-.137.829 0l43.875 25.369c.254.15.415.423.415.709v51.142c0 .286-.161.559-.415.709l-43.875 25.398c-.241.137-.588.137-.829 0l-11.177-6.652c-.233-.141-.519-.156-.766-.071-2.678 1.546-3.204 1.685-5.714 2.538-.544.184-1.351.455.302 1.314l14.567 8.663c1.378.804 2.958 1.235 4.537 1.235 1.58 0 3.159-.431 4.537-1.235l43.875-25.398c2.869-1.651 4.82-4.754 4.82-8.073V38.407c0-3.319-1.951-6.422-4.82-8.073zM77.91 81.445c-11.726 0-14.309-3.235-15.17-9.066-.102-.628-.634-1.099-1.276-1.099h-3.585c-.709 0-1.288.574-1.288 1.276 0 7.574 4.127 16.602 21.319 16.602 12.728 0 20.058-5.022 20.058-13.743 0-8.692-5.893-11.011-18.229-12.654-12.388-1.651-13.649-2.486-13.649-5.392 0-2.39 1.063-5.564 10.227-5.564 8.124 0 11.139 1.757 12.354 7.409.106.586.625 1.011 1.23 1.011h3.585c.346 0 .679-.143.925-.396.246-.253.373-.596.347-.937-.891-10.568-7.912-15.493-18.441-15.493-10.541 0-16.846 4.455-16.846 11.927 0 8.812 6.821 11.244 17.823 12.346 13.13 1.304 14.055 3.264 14.055 5.717 0 4.455-3.585 6.346-12.018 6.346z"/>
</svg>