<svg width="32" height="32" viewBox="0 0 24 24" fill="none" xmlns="http://www.w3.org/2000/svg">
  <path d="M24 12.593c0-1.292-.466-2.427-1.3-3.381-.832-.954-1.932-1.505-3.253-1.647L12 6.2 4.553 7.565c-1.321.142-2.421.693-3.253 1.647C.466 10.166 0 11.301 0 12.593v6.81C0 20.955.895 22 2 22h20c1.105 0 2-1.045 2-2.597v-6.81z" fill="black"/>
  <path d="M12 6.2L24 12.593v6.81c0 1.552-.895 2.597-2 2.597H2c-1.105 0-2-1.045-2-2.597v-6.81L12 6.2z" fill="url(#gradient)"/>
  <defs>
    <linearGradient id="gradient" x1="0%" y1="0%" x2="100%" y2="100%">
      <stop offset="0%" stop-color="#7C3AED"/>
      <stop offset="100%" stop-color="#A855F7"/>
    </linearGradient>
  </defs>
</svg>