<svg width="600" height="400" viewBox="0 0 600 400" fill="none" xmlns="http://www.w3.org/2000/svg">
  <rect width="600" height="400" fill="#f1f5f9"/>
  <rect x="50" y="50" width="500" height="300" rx="8" fill="white" stroke="#e2e8f0" stroke-width="2"/>
  
  <!-- Header -->
  <rect x="70" y="70" width="460" height="40" rx="4" fill="#f8fafc"/>
  <rect x="85" y="80" width="100" height="20" rx="10" fill="#8b5cf6"/>
  <text x="135" y="93" font-family="Arial, sans-serif" font-size="12" fill="white" text-anchor="middle">AI Generator</text>
  
  <!-- Input area -->
  <rect x="70" y="130" width="460" height="60" rx="4" fill="#faf5ff" stroke="#e9d5ff"/>
  <rect x="85" y="145" width="430" height="30" rx="4" fill="white" stroke="#d8b4fe"/>
  <text x="90" y="163" font-family="Arial, sans-serif" font-size="12" fill="#6b7280">Enter your prompt here...</text>
  
  <!-- Generate button -->
  <rect x="420" y="200" width="100" height="30" rx="15" fill="#8b5cf6"/>
  <text x="470" y="218" font-family="Arial, sans-serif" font-size="12" font-weight="bold" fill="white" text-anchor="middle">Generate</text>
  
  <!-- Output area -->
  <rect x="70" y="240" width="460" height="80" rx="4" fill="#f0f9ff" stroke="#bae6fd"/>
  
  <!-- Generated content representation -->
  <rect x="85" y="255" width="200" height="8" rx="2" fill="#0ea5e9"/>
  <rect x="85" y="270" width="300" height="8" rx="2" fill="#0ea5e9"/>
  <rect x="85" y="285" width="250" height="8" rx="2" fill="#0ea5e9"/>
  <rect x="85" y="300" width="180" height="8" rx="2" fill="#0ea5e9"/>
  
  <!-- AI brain icon -->
  <circle cx="450" cy="280" r="25" fill="#a855f7"/>
  <path d="M440 270c0-5 5-10 10-10s10 5 10 10" stroke="white" stroke-width="2" fill="none"/>
  <path d="M440 290c0 5 5 10 10 10s10-5 10-10" stroke="white" stroke-width="2" fill="none"/>
  <circle cx="445" cy="280" r="2" fill="white"/>
  <circle cx="455" cy="280" r="2" fill="white"/>
  
  <!-- Magic sparkles -->
  <path d="M380 160l3-3-3-3-3 3z" fill="#fbbf24"/>
  <path d="M380 154v12M374 160h12" stroke="#fbbf24" stroke-width="1"/>
  
  <path d="M420 140l2-2-2-2-2 2z" fill="#f59e0b"/>
  <path d="M420 136v8M416 140h8" stroke="#f59e0b" stroke-width="1"/>
  
  <!-- Title -->
  <text x="300" y="380" font-family="Arial, sans-serif" font-size="18" font-weight="bold" fill="#1e293b" text-anchor="middle">AI Content Generator</text>
</svg>