<svg width="600" height="400" viewBox="0 0 600 400" fill="none" xmlns="http://www.w3.org/2000/svg">
  <rect width="600" height="400" fill="#f1f5f9"/>
  <rect x="50" y="50" width="500" height="300" rx="8" fill="white" stroke="#e2e8f0" stroke-width="2"/>
  
  <!-- Header with navigation -->
  <rect x="70" y="70" width="460" height="40" rx="4" fill="#f8fafc"/>
  <circle cx="90" cy="90" r="8" fill="#ef4444"/>
  <circle cx="110" cy="90" r="8" fill="#f59e0b"/>
  <circle cx="130" cy="90" r="8" fill="#10b981"/>
  
  <!-- Task columns -->
  <rect x="70" y="130" width="140" height="180" rx="4" fill="#fef2f2"/>
  <rect x="220" y="130" width="140" height="180" rx="4" fill="#fffbeb"/>
  <rect x="370" y="130" width="140" height="180" rx="4" fill="#f0fdf4"/>
  
  <!-- Column headers -->
  <rect x="80" y="140" width="120" height="20" rx="2" fill="#dc2626"/>
  <rect x="230" y="140" width="120" height="20" rx="2" fill="#d97706"/>
  <rect x="380" y="140" width="120" height="20" rx="2" fill="#16a34a"/>
  
  <!-- Task cards -->
  <rect x="80" y="170" width="120" height="30" rx="4" fill="white" stroke="#fecaca"/>
  <rect x="80" y="210" width="120" height="30" rx="4" fill="white" stroke="#fecaca"/>
  <rect x="80" y="250" width="120" height="30" rx="4" fill="white" stroke="#fecaca"/>
  
  <rect x="230" y="170" width="120" height="30" rx="4" fill="white" stroke="#fed7aa"/>
  <rect x="230" y="210" width="120" height="30" rx="4" fill="white" stroke="#fed7aa"/>
  
  <rect x="380" y="170" width="120" height="30" rx="4" fill="white" stroke="#bbf7d0"/>
  <rect x="380" y="210" width="120" height="30" rx="4" fill="white" stroke="#bbf7d0"/>
  <rect x="380" y="250" width="120" height="30" rx="4" fill="white" stroke="#bbf7d0"/>
  <rect x="380" y="290" width="120" height="30" rx="4" fill="white" stroke="#bbf7d0"/>
  
  <!-- Collaboration indicator -->
  <circle cx="480" cy="320" r="15" fill="#6366f1"/>
  <circle cx="465" cy="325" r="10" fill="#8b5cf6"/>
  <circle cx="495" cy="325" r="10" fill="#ec4899"/>
  
  <!-- Title -->
  <text x="300" y="380" font-family="Arial, sans-serif" font-size="18" font-weight="bold" fill="#1e293b" text-anchor="middle">Task Management App</text>
</svg>