<svg width="600" height="400" viewBox="0 0 600 400" fill="none" xmlns="http://www.w3.org/2000/svg">
  <rect width="600" height="400" fill="#f1f5f9"/>
  <rect x="50" y="50" width="500" height="300" rx="8" fill="white" stroke="#e2e8f0" stroke-width="2"/>
  
  <!-- Header -->
  <rect x="70" y="70" width="460" height="40" rx="4" fill="#f8fafc"/>
  <rect x="85" y="80" width="60" height="20" rx="2" fill="#3b82f6"/>
  <rect x="155" y="80" width="80" height="20" rx="2" fill="#e2e8f0"/>
  <rect x="245" y="80" width="80" height="20" rx="2" fill="#e2e8f0"/>
  
  <!-- Product Grid -->
  <rect x="70" y="130" width="140" height="100" rx="4" fill="#fef3c7"/>
  <rect x="220" y="130" width="140" height="100" rx="4" fill="#dcfce7"/>
  <rect x="370" y="130" width="140" height="100" rx="4" fill="#fce7f3"/>
  
  <!-- Product Cards -->
  <rect x="80" y="140" width="60" height="60" rx="4" fill="#f59e0b"/>
  <rect x="80" y="210" width="120" height="8" rx="2" fill="#d97706"/>
  
  <rect x="230" y="140" width="60" height="60" rx="4" fill="#10b981"/>
  <rect x="230" y="210" width="120" height="8" rx="2" fill="#059669"/>
  
  <rect x="380" y="140" width="60" height="60" rx="4" fill="#ec4899"/>
  <rect x="380" y="210" width="120" height="8" rx="2" fill="#be185d"/>
  
  <!-- Cart Icon -->
  <circle cx="480" cy="280" r="25" fill="#3b82f6"/>
  <path d="M470 275h20l-2 10h-16l-2-10z" fill="white"/>
  <circle cx="475" cy="290" r="2" fill="white"/>
  <circle cx="485" cy="290" r="2" fill="white"/>
  
  <!-- Title -->
  <text x="300" y="350" font-family="Arial, sans-serif" font-size="18" font-weight="bold" fill="#1e293b" text-anchor="middle">E-Commerce Platform</text>
</svg>